<svg xmlns="http://www.w3.org/2000/svg" viewBox="0 0 1362 680" preserveAspectRatio="xMidYMid slice">
  <defs>
    <linearGradient id="grad1" x1="0%" y1="0%" x2="100%" y2="100%">
      <stop offset="0%" style="stop-color:#5DCECD;stop-opacity:1" />
      <stop offset="50%" style="stop-color:#40B89F;stop-opacity:1" />
      <stop offset="100%" style="stop-color:#1B8A6B;stop-opacity:1" />
    </linearGradient>
  </defs>
  <rect width="1362" height="680" fill="url(#grad1)"/>

  <!-- Wavy layers -->
  <path d="M0,200 Q341,100 682,200 T1364,200 L1364,0 L0,0 Z" fill="#4DBBAA" opacity="0.8"/>
  <path d="M0,250 Q341,150 682,250 T1364,250 L1364,150 Q682,100 0,150 Z" fill="#3EA89C" opacity="0.6"/>
  <path d="M0,320 Q341,220 682,320 T1364,320 L1364,250 Q682,150 0,250 Z" fill="#2D9888" opacity="0.7"/>
  <path d="M0,400 Q341,300 682,400 T1364,400 L1364,320 Q682,220 0,320 Z" fill="#1B8A6B" opacity="0.8"/>
  <path d="M0,500 Q341,400 682,500 T1364,500 L1364,400 Q682,300 0,400 Z" fill="#0F6B55" opacity="0.9"/>
</svg>
